<svg width="23" height="23" viewBox="0 0 23 23" fill="none" xmlns="http://www.w3.org/2000/svg">
<path d="M9.79745 7.51094C9.79745 8.09492 9.79745 8.66094 9.98163 9.19102C8.0455 11.4641 2.45721 17.9283 2.45721 17.9283L2.58749 19.559C2.58749 19.559 4.15077 21.0414 4.38436 20.8168C5.07616 20.143 5.49842 19.6848 5.49842 19.6848L5.82366 17.7374L7.93993 17.5815L8.10973 15.4792L10.3392 15.4365L10.3612 13.1864L12.7282 13.2807L13.1324 12.4344C13.8287 12.7354 14.4621 12.8566 15.2752 12.8566C18.3524 12.8566 20.8455 10.4578 20.8455 7.50195C20.8455 4.54609 18.3506 2.15625 15.2734 2.15625C12.1963 2.15625 9.79745 4.55508 9.79745 7.51094ZM18.2765 6.46875C18.2765 6.81392 18.1741 7.15134 17.9823 7.43834C17.7906 7.72534 17.518 7.94903 17.1991 8.08112C16.8802 8.21321 16.5293 8.24777 16.1908 8.18043C15.8522 8.11309 15.5413 7.94688 15.2972 7.7028C15.0531 7.45873 14.8869 7.14776 14.8196 6.80922C14.7522 6.47069 14.7868 6.11978 14.9189 5.80089C15.051 5.48199 15.2746 5.20942 15.5616 5.01766C15.8486 4.82589 16.1861 4.72354 16.5312 4.72354C16.7605 4.7233 16.9875 4.76828 17.1994 4.8559C17.4112 4.94352 17.6037 5.07206 17.7658 5.23417C17.9279 5.39627 18.0565 5.58876 18.1441 5.80061C18.2317 6.01245 18.2767 6.2395 18.2765 6.46875V6.46875Z" fill="#9CA3AF"/>
</svg>
