<svg width="19" height="19" viewBox="0 0 19 19" fill="none" xmlns="http://www.w3.org/2000/svg">
<path d="M9.76855 0.152588C4.79847 0.152588 0.754883 4.19617 0.754883 9.16626C0.754883 14.1363 4.79847 18.1799 9.76855 18.1799C14.7386 18.1799 18.7822 14.1363 18.7822 9.16626C18.7822 4.19617 14.7386 0.152588 9.76855 0.152588ZM13.2354 9.85962H10.4619V12.6331C10.4619 12.8169 10.3889 12.9933 10.2588 13.1233C10.1288 13.2534 9.95245 13.3264 9.76855 13.3264C9.58466 13.3264 9.40831 13.2534 9.27828 13.1233C9.14825 12.9933 9.0752 12.8169 9.0752 12.6331V9.85962H6.30176C6.11787 9.85962 5.94151 9.78657 5.81148 9.65654C5.68145 9.52651 5.6084 9.35015 5.6084 9.16626C5.6084 8.98237 5.68145 8.80601 5.81148 8.67598C5.94151 8.54595 6.11787 8.4729 6.30176 8.4729H9.0752V5.69946C9.0752 5.51557 9.14825 5.33921 9.27828 5.20918C9.40831 5.07915 9.58466 5.0061 9.76855 5.0061C9.95245 5.0061 10.1288 5.07915 10.2588 5.20918C10.3889 5.33921 10.4619 5.51557 10.4619 5.69946V8.4729H13.2354C13.4192 8.4729 13.5956 8.54595 13.7256 8.67598C13.8557 8.80601 13.9287 8.98237 13.9287 9.16626C13.9287 9.35015 13.8557 9.52651 13.7256 9.65654C13.5956 9.78657 13.4192 9.85962 13.2354 9.85962Z" fill="white"/>
</svg>
