<svg width="14" height="16" viewBox="0 0 14 16" fill="none" xmlns="http://www.w3.org/2000/svg">
<path d="M12.9604 2.39558H9.59594V1.55446C9.59594 1.18266 9.44825 0.826087 9.18534 0.563186C8.92244 0.300284 8.56587 0.152588 8.19407 0.152588H5.39034C5.01854 0.152588 4.66197 0.300284 4.39906 0.563186C4.13616 0.826087 3.98847 1.18266 3.98847 1.55446V2.39558H0.62398C0.475261 2.39558 0.332632 2.45466 0.227472 2.55982C0.122311 2.66498 0.0632324 2.80761 0.0632324 2.95633C0.0632324 3.10505 0.122311 3.24767 0.227472 3.35283C0.332632 3.458 0.475261 3.51707 0.62398 3.51707H1.21977L1.88566 14.2035C1.93543 15.1445 2.65669 15.8535 3.56791 15.8535H10.0165C10.9323 15.8535 11.6392 15.1603 11.6987 14.2063L12.3646 3.51707H12.9604C13.1091 3.51707 13.2518 3.458 13.3569 3.35283C13.4621 3.24767 13.5212 3.10505 13.5212 2.95633C13.5212 2.80761 13.4621 2.66498 13.3569 2.55982C13.2518 2.45466 13.1091 2.39558 12.9604 2.39558ZM4.56919 13.6105H4.54921C4.40389 13.6106 4.26421 13.5543 4.1596 13.4534C4.055 13.3525 3.99364 13.215 3.98847 13.0698L3.70809 5.21929C3.70279 5.07057 3.75679 4.92584 3.85821 4.81693C3.95962 4.70803 4.10014 4.64387 4.24886 4.63857C4.39758 4.63327 4.54232 4.68727 4.65122 4.78868C4.76013 4.8901 4.82429 5.03062 4.82959 5.17934L5.10996 13.0298C5.11263 13.1035 5.10076 13.1769 5.07502 13.246C5.04928 13.315 5.01018 13.3783 4.95996 13.4323C4.90973 13.4862 4.84937 13.5297 4.78232 13.5603C4.71527 13.5909 4.64284 13.608 4.56919 13.6105ZM7.35295 13.0498C7.35295 13.1985 7.29387 13.3411 7.18871 13.4463C7.08355 13.5515 6.94092 13.6105 6.7922 13.6105C6.64349 13.6105 6.50086 13.5515 6.3957 13.4463C6.29054 13.3411 6.23146 13.1985 6.23146 13.0498V5.19932C6.23146 5.0506 6.29054 4.90797 6.3957 4.80281C6.50086 4.69765 6.64349 4.63857 6.7922 4.63857C6.94092 4.63857 7.08355 4.69765 7.18871 4.80281C7.29387 4.90797 7.35295 5.0506 7.35295 5.19932V13.0498ZM8.47445 2.39558H5.10996V1.55446C5.10954 1.51752 5.1165 1.48087 5.13044 1.44666C5.14438 1.41246 5.16502 1.38138 5.19114 1.35526C5.21726 1.32914 5.24834 1.3085 5.28254 1.29456C5.31675 1.28062 5.3534 1.27366 5.39034 1.27408H8.19407C8.23101 1.27366 8.26766 1.28062 8.30187 1.29456C8.33607 1.3085 8.36715 1.32914 8.39327 1.35526C8.41939 1.38138 8.44003 1.41246 8.45397 1.44666C8.46791 1.48087 8.47487 1.51752 8.47445 1.55446V2.39558ZM9.59594 13.0698C9.59077 13.215 9.52941 13.3525 9.4248 13.4534C9.3202 13.5543 9.18052 13.6106 9.0352 13.6105H9.01487C8.94125 13.6079 8.86886 13.5908 8.80185 13.5602C8.73484 13.5296 8.67452 13.4861 8.62433 13.4321C8.57414 13.3782 8.53507 13.3149 8.50936 13.2459C8.48364 13.1769 8.47178 13.1034 8.47445 13.0298L8.75482 5.17934C8.75745 5.1057 8.77455 5.0333 8.80515 4.96627C8.83575 4.89924 8.87926 4.8389 8.93319 4.78868C8.98711 4.73847 9.0504 4.69937 9.11944 4.67361C9.18847 4.64785 9.26191 4.63595 9.33555 4.63857C9.40918 4.64119 9.48158 4.65829 9.54861 4.6889C9.61564 4.7195 9.67599 4.76301 9.7262 4.81693C9.77642 4.87086 9.81552 4.93415 9.84128 5.00318C9.86703 5.07222 9.87894 5.14566 9.87632 5.21929L9.59594 13.0698Z" fill="white"/>
</svg>
